<svg width="825" height="54" viewBox="0 0 825 54" fill="none" xmlns="http://www.w3.org/2000/svg">
<path d="M30.4133 52.5482C30.8614 52.101 31.2168 51.5699 31.4594 50.9852C31.7019 50.4005 31.8268 49.7737 31.8268 49.1407C31.8268 48.5077 31.7019 47.8809 31.4594 47.2962C31.2168 46.7114 30.8614 46.1803 30.4133 45.7332L11.66 26.9798L30.4133 8.2265C31.317 7.32278 31.8247 6.09707 31.8247 4.81901C31.8247 3.54095 31.317 2.31522 30.4133 1.4115C29.5096 0.507774 28.2839 7.46064e-05 27.0058 7.44947e-05C25.7277 7.43829e-05 24.502 0.507774 23.5983 1.4115L1.4133 23.5965C0.965236 24.0437 0.609756 24.5748 0.367213 25.1595C0.124669 25.7442 -0.00017268 26.371 -0.000172735 27.004C-0.00017279 27.637 0.124669 28.2638 0.367212 28.8485C0.609756 29.4332 0.965236 29.9644 1.4133 30.4115L23.5983 52.5965C25.435 54.4332 28.5283 54.4332 30.4133 52.5482Z" fill="white"/>
<path d="M794.413 1.41985C793.965 1.867 793.61 2.39813 793.367 2.98283C793.125 3.56754 793 4.19434 793 4.82735C793 5.46036 793.125 6.08716 793.367 6.67187C793.61 7.25657 793.965 7.7877 794.413 8.23485L813.167 26.9882L794.413 45.7415C793.51 46.6452 793.002 47.8709 793.002 49.149C793.002 50.4271 793.51 51.6528 794.413 52.5565C795.317 53.4602 796.543 53.9679 797.821 53.9679C799.099 53.9679 800.325 53.4602 801.228 52.5565L823.413 30.3715C823.862 29.9244 824.217 29.3932 824.46 28.8085C824.702 28.2238 824.827 27.597 824.827 26.964C824.827 26.331 824.702 25.7042 824.46 25.1195C824.217 24.5348 823.862 24.0037 823.413 23.5565L801.228 1.37152C799.392 -0.46515 796.298 -0.465149 794.413 1.41985Z" fill="white"/>
</svg>
