<svg width="40" height="67" viewBox="0 0 40 67" fill="none" xmlns="http://www.w3.org/2000/svg">
<path d="M1.77646 1.76271C1.21333 2.31784 0.766562 2.97722 0.461734 3.70312C0.156906 4.42902 0 5.20718 0 5.99305C0 6.77892 0.156906 7.55708 0.461734 8.28298C0.766562 9.00887 1.21333 9.66826 1.77646 10.2234L25.3456 33.5052L1.77646 56.7871C0.640659 57.909 0.00257214 59.4307 0.00257214 61.0174C0.00257214 62.6041 0.640659 64.1258 1.77646 65.2477C2.91226 66.3697 4.45273 67 6.05899 67C7.66525 67 9.20572 66.3697 10.3415 65.2477L38.2235 37.7056C38.7867 37.1504 39.2334 36.491 39.5383 35.7652C39.8431 35.0393 40 34.2611 40 33.4752C40 32.6894 39.8431 31.9112 39.5383 31.1853C39.2334 30.4594 38.7867 29.8 38.2235 29.2449L10.3415 1.70271C8.03321 -0.577473 4.14552 -0.577472 1.77646 1.76271Z" fill="white"/>
</svg>
