<svg width="32" height="54" viewBox="0 0 32 54" fill="none" xmlns="http://www.w3.org/2000/svg">
<path d="M30.4134 52.5482C30.8615 52.101 31.217 51.5699 31.4595 50.9852C31.7021 50.4005 31.8269 49.7737 31.8269 49.1407C31.8269 48.5077 31.7021 47.8809 31.4595 47.2962C31.217 46.7114 30.8615 46.1803 30.4134 45.7332L11.6601 26.9798L30.4134 8.2265C31.3172 7.32278 31.8249 6.09707 31.8249 4.81901C31.8249 3.54095 31.3172 2.31522 30.4134 1.4115C29.5097 0.507774 28.284 7.46064e-05 27.0059 7.44947e-05C25.7279 7.43829e-05 24.5022 0.507774 23.5984 1.4115L1.41343 23.5965C0.965358 24.0437 0.609878 24.5748 0.367335 25.1595C0.124791 25.7442 -5.06093e-05 26.371 -5.06646e-05 27.004C-5.072e-05 27.637 0.124791 28.2638 0.367334 28.8485C0.609878 29.4332 0.965358 29.9644 1.41342 30.4115L23.5984 52.5965C25.4351 54.4332 28.5284 54.4332 30.4134 52.5482Z" fill="white"/>
</svg>
