<svg width="106" height="41" viewBox="0 0 106 41" fill="none" xmlns="http://www.w3.org/2000/svg">
<g clip-path="url(#clip0_133_43)">
<path d="M37.145 10.1785C35.9202 10.7068 34.5873 11.087 33.2144 11.2351C34.6398 10.3883 35.7072 9.05052 36.2164 7.4727C34.8788 8.26837 33.4136 8.82631 31.8855 9.12177C31.2469 8.43903 30.4745 7.89514 29.6165 7.52396C28.7585 7.15279 27.8332 6.96231 26.8983 6.96437C23.1159 6.96437 20.0739 10.0304 20.0739 13.7928C20.0739 14.3211 20.1379 14.8495 20.242 15.3578C14.5783 15.0616 9.52705 12.3559 6.16887 8.21318C5.55697 9.25832 5.23632 10.4483 5.24026 11.6594C5.24026 14.029 6.44505 16.1183 8.28224 17.3471C7.19955 17.3045 6.14222 17.0069 5.19624 16.4785V16.5626C5.19624 19.8808 7.54176 22.6305 10.6678 23.2629C10.0808 23.4154 9.47704 23.4934 8.87062 23.4951C8.42633 23.4951 8.00606 23.4511 7.58178 23.391C8.44634 26.0968 10.964 28.0621 13.9619 28.1261C11.6164 29.9633 8.6785 31.044 5.48843 31.044C4.91605 31.044 4.38771 31.024 3.83936 30.9599C6.86532 32.9012 10.4556 34.0219 14.3222 34.0219C26.8743 34.0219 33.7428 23.6232 33.7428 14.5973C33.7428 14.3011 33.7428 14.0049 33.7227 13.7087C35.0516 12.7361 36.2164 11.5313 37.145 10.1785Z" fill="white"/>
<path d="M100.21 4.48291H70.7513C70.0428 4.48291 69.4705 5.05528 69.4705 5.76374V35.2229C69.4705 35.9313 70.0428 36.5037 70.7513 36.5037H100.21C100.919 36.5037 101.491 35.9313 101.491 35.2229V5.76374C101.491 5.05528 100.919 4.48291 100.21 4.48291ZM96.512 13.829H93.9543C91.949 13.829 91.5608 14.7816 91.5608 16.1825V19.2685H96.3479L95.7235 24.0996H91.5608V36.5037H86.5696V24.1036H82.3948V19.2685H86.5696V15.7062C86.5696 11.5715 89.0952 9.31805 92.7856 9.31805C94.5547 9.31805 96.0717 9.45013 96.516 9.51017V13.829H96.512Z" fill="white"/>
</g>
<defs>
<clipPath id="clip0_133_43">
<rect width="105.973" height="40.9866" fill="white"/>
</clipPath>
</defs>
</svg>
