<svg width="32" height="54" viewBox="0 0 32 54" fill="none" xmlns="http://www.w3.org/2000/svg">
<path d="M1.41348 1.41985C0.965413 1.867 0.609933 2.39813 0.36739 2.98283C0.124846 3.56754 0 4.19434 0 4.82735C0 5.46036 0.124846 6.08716 0.36739 6.67187C0.609933 7.25657 0.965413 7.7877 1.41348 8.23485L20.1668 26.9882L1.41348 45.7415C0.509755 46.6452 0.00204659 47.8709 0.00204659 49.149C0.00204659 50.4271 0.509755 51.6528 1.41348 52.5565C2.31721 53.4602 3.54292 53.9679 4.82098 53.9679C6.09904 53.9679 7.32475 53.4602 8.22848 52.5565L30.4135 30.3715C30.8615 29.9244 31.217 29.3932 31.4596 28.8085C31.7021 28.2238 31.827 27.597 31.827 26.964C31.827 26.331 31.7021 25.7042 31.4596 25.1195C31.217 24.5348 30.8615 24.0037 30.4135 23.5565L8.22848 1.37152C6.39181 -0.46515 3.29848 -0.465149 1.41348 1.41985Z" fill="white"/>
</svg>
