<svg width="39" height="67" viewBox="0 0 39 67" fill="none" xmlns="http://www.w3.org/2000/svg">
<path d="M37.268 65.2373C37.817 64.6822 38.2526 64.0228 38.5498 63.2969C38.847 62.571 39 61.7928 39 61.007C39 60.2211 38.847 59.4429 38.5498 58.717C38.2526 57.9911 37.817 57.3317 37.268 56.7766L14.2881 33.4948L37.268 10.2129C38.3754 9.09097 38.9975 7.56928 38.9975 5.9826C38.9975 4.39591 38.3754 2.87421 37.268 1.75225C36.1606 0.630297 34.6586 -5.1526e-07 33.0925 -6.52173e-07C31.5264 -7.89086e-07 30.0244 0.630297 28.917 1.75225L1.73204 29.2944C1.18298 29.8496 0.747387 30.5089 0.45018 31.2348C0.152973 31.9607 -5.18377e-06 32.7389 -5.25247e-06 33.5248C-5.32118e-06 34.3106 0.152972 35.0888 0.45018 35.8147C0.747387 36.5406 1.18298 37.2 1.73203 37.7551L28.917 65.2973C31.1676 67.5775 34.9581 67.5775 37.268 65.2373Z" fill="white"/>
</svg>
